<svg version="1" xmlns="http://www.w3.org/2000/svg" width="853.333" height="853.333" viewBox="0 0 640.000000 640.000000"><path d="M306 1.6c-3 .7-6.4 1.5-7.5 1.8-1.1.2-5.8 1.4-10.5 2.6-4.7 1.1-9.6 2.3-11 2.6-1.4.3-3.3.7-4.2 1-.9.3-2.5.7-3.5.9-1 .2-8.5 2-16.8 4-8.2 2.1-16.1 3.9-17.5 4.2-1.4.2-4.3.9-6.5 1.5-5.1 1.5-4 1.2-11 2.8-3.3.8-6.2 1.4-6.5 1.5-14.4 3.3-28.7 7-29.3 7.5-.5.4-.4 2.5.2 4.6.6 2.2 1.2 5 1.5 6.4.2 1.4.5 2.5.6 2.5.1 0 .3.9.5 2s1.1 5 2 8.5c.9 3.6 1.8 7.6 2.1 9 .3 1.4 1 4.3 1.6 6.5.5 2.2 1.2 4.8 1.4 5.7.7 3.1 1.1 5 4.4 18.3 1.7 7.1 3.3 13.7 3.5 14.6.2.9 1.5 6.5 3 12.5 1.4 6 2.8 11.7 3.1 12.6.2 1 .6 2.8.9 4 .3 1.3 1.1 5 1.9 8.3.8 3.3 2.7 10.9 4.1 17 1.5 6 2.8 11.4 2.9 12 3.8 15.3 7.8 32.3 8 34 .1 1.2.6 2.6 1 3.3 1.1 1.8-.3 1.5-10.1-1.9-4.8-1.7-11.3-3.9-14.3-4.9-3-1-14-4.8-24.5-8.5-10.4-3.7-19.4-6.8-20-6.9-.5-.2-1.7-.6-2.5-.9-1.5-.6-16.2-5.7-32.5-11.2-4.4-1.5-8.7-2.9-9.5-3.2-.8-.4-1.7-.7-2-.8-.3-.1-1.2-.5-2-.8-.8-.4-5.5-2-10.5-3.7-10-3.2-41.3-14.2-45.9-15.9-1.6-.7-3.2-.8-3.6-.4-.4.4-3.5 8.9-6.8 18.8-11.7 34.5-13.3 39-14.2 41-.5 1.1-1.3 3.6-1.9 5.5-.5 1.9-3 9.3-5.6 16.5-2.5 7.1-4.8 13.7-5 14.5-.2.8-2 6.2-4 12s-3.7 10.9-3.8 11.5c-.1.5-.5 1.2-.8 1.5-.3.3-.9 1.7-1.3 3.2-.5 2.4-.3 2.8 2.6 3.7 1.8.5 13.2 4.4 25.3 8.6 12.1 4.2 23.6 8.1 25.5 8.7 1.9.6 4 1.3 4.5 1.7.6.4 3 1.3 5.5 2 2.5.6 5.4 1.6 6.5 2 1.1.5 4.9 1.9 8.5 3.1 3.6 1.2 7.4 2.6 8.5 3.1 1.1.5 2.9 1.1 4 1.4 1.1.2 9 2.8 17.5 5.8s19.1 6.7 23.5 8.2c4.4 1.5 17.7 6.1 29.5 10.2s23.8 8.1 26.5 9c2.8.8 5.4 1.8 5.9 2.3.4.5-2.3 4.1-6.1 8.2-3.8 4-9.6 10.1-12.9 13.6-3.2 3.5-8.6 9.2-11.9 12.6-5.1 5.3-12.8 13.5-34.5 36.5-8.7 9.2-32.8 34.8-36 38.1-1.9 2-9.1 9.6-16 16.9-6.9 7.4-14.5 15.4-17 18-8 8.3-7.9 7.5-2.4 12.7 10.5 10 39 37.2 45.5 43.4 3.7 3.6 14 13.5 23 22 8.9 8.5 18 17.2 20.2 19.4l4 3.9 7.6-8c4.2-4.4 12.8-13.5 19.1-20.3 6.3-6.8 13.5-14.4 16-17 5.5-5.7 26.5-28.1 31-33 1.8-1.9 6.7-7.1 10.9-11.6 4.2-4.4 12.3-13.1 18.1-19.3 22.1-23.6 26.8-28.3 27.2-27.5.4.7 2.1 7.6 4.3 17.4 0 .3.4 1.4.8 2.5.3 1.1.8 3.1 1.1 4.5.5 3.2 3.4 15.4 4.7 20 .5 1.9 3 12.3 5.5 23 2.6 10.7 5.1 21.1 5.6 23 .5 1.9 1 4.4 1.3 5.5.6 3.2 1.4 6.5 2 8.5.3 1 .8 2.9 1 4.2.5 2.5 7 30 8.5 35.8.5 1.9 2.8 11.3 5.1 20.8 3.9 16.4 4.3 17.3 6.3 16.8 2.6-.8 25.2-6.3 28.6-7 1.4-.3 10.8-2.6 21-5.1 10.2-2.5 19.4-4.7 20.5-5 1.1-.2 6.5-1.5 12-2.8 5.5-1.4 17.9-4.4 27.5-6.7 9.6-2.3 18.1-4.2 18.8-4.3 1.4 0 1.3-2.9-.2-8.7-.4-1.4-.9-3.4-1-4.5-.2-1.1-2.3-9.7-4.6-19-4.5-18.5-5.2-21.2-5.4-23.5-.1-.9-.5-2-.8-2.5-.3-.6-.9-2.8-1.3-5-.9-4.5-1.2-5.4-1.4-5.8-.2-.1-.4-1.3-.7-2.7-.6-3.6-5.2-22.8-6.4-27-.6-1.9-1.2-4.6-1.4-6-.3-1.4-.5-2.5-.6-2.5-.1 0-.3-.8-.5-1.7-.2-.9-1-4.5-1.9-8-.8-3.5-1.7-7.4-2-8.8-.5-2.7-.7-3.3-3-12.5-4.7-18.3-10.7-44.8-10.2-45.2.2-.3 4.2.9 8.8 2.5 4.6 1.7 12.4 4.4 17.3 6.2 5 1.7 9.8 3.5 10.7 4 1 .6 2.5 1 3.3 1 .8 0 2.3.4 3.3 1 .9.5 5.8 2.3 10.7 4 5 1.7 11.3 4 14 5.1 2.8 1.1 5.9 2.1 7 2.4 1.1.2 5.8 1.8 10.5 3.6 4.7 1.7 10.8 3.9 13.5 4.9 13.6 4.9 44.6 16 56.5 20.2 4.7 1.6 9.2 3.2 10 3.5 11.8 4.6 11.8 4.6 13.7-1.7.6-1.9 3.6-10.7 6.8-19.5 3.1-8.8 5.7-16.5 5.9-17 .1-.6.4-1.5.8-2 .3-.6 1.3-3.3 2.1-6 .8-2.8 4.5-13.6 8.2-24 3.7-10.5 6.8-19.5 6.9-20 .2-.6.6-1.7.9-2.5 1.5-3.5 10.6-30.4 10.4-30.6-.2-.3-6.8-2.5-25.2-8.8-4.4-1.5-8.9-3.1-10-3.6-1.7-.7-12.4-4.5-23-8.2-1.6-.5-3.9-1.4-5-1.8-3.1-1.3-11.9-4.5-12.7-4.6-.5-.1-1-.3-1.3-.4-.3-.1-.8-.3-1.2-.5-.5-.1-1.5-.4-2.3-.8-.8-.3-9.4-3.3-19-6.7-9.6-3.4-18.4-6.5-19.5-7-1.1-.4-2.9-1.1-4-1.4-1.1-.2-6.8-2.2-12.7-4.4-6-2.2-10.8-3.7-10.8-3.3 0 .3-.4.1-.8-.4-.4-.6-4.1-2.1-8.2-3.5-4.1-1.3-10.9-3.7-15-5.3-4.1-1.5-8.2-3-9-3.2-1.3-.3-4.4-1.3-11.5-4.1-1.1-.4-2.3-.8-2.7-.8-2-.3-1.1-1.9 4.8-8.1 6.8-7.2 39.3-41.1 49.9-52.1 3.3-3.4 13.4-13.9 22.5-23.4 9.1-9.5 19-19.8 22-23 3-3.1 12.9-13.5 22-23s17.4-18.1 18.4-19.1c1.8-1.8 1.8-1.9-3.1-6.6-2.8-2.6-12.9-12.2-22.4-21.3-9.5-9.1-19.2-18.3-21.5-20.5-2.2-2.2-11-10.5-19.4-18.5-8.3-8-18.3-17.5-22.1-21.3-3.8-3.7-7.2-6.7-7.4-6.7-.6 0-6.5 6-27.3 27.9-8.1 8.4-19 19.8-24.2 25.2-5.2 5.3-15.6 16.1-23 23.9-7.4 7.8-19.1 20-26 27.1-6.9 7.1-12.5 12.9-12.4 12.9.5 0-16.5 17.3-17.1 17.4-.5 0-.9-.6-1.1-1.4-.5-2.6-1.1-5.3-2.9-12-.9-3.6-1.9-7.6-2.1-9-.3-1.4-1-4.3-1.6-6.5-.5-2.2-1.2-4.9-1.4-6.1-.2-1.2-3.4-14.2-7-29s-6.7-27.8-6.8-28.9c-.2-1.1-.6-2.7-.9-3.5-.6-1.9-2.6-9.9-3.1-12.5-.1-1.1-.6-2.7-.9-3.5-.3-.8-1.6-6-2.8-11.5-1.3-5.5-2.4-10.5-2.5-11-.2-.6-.6-2.4-.9-4-.3-1.7-.8-3.7-1.1-4.5-.3-.8-.8-2.6-1-4-.3-1.4-2.3-9.7-4.5-18.5C314.8 7.7 313 .4 313 .3c0-.4-1-.3-7 1.3z"/></svg>